<mxfile host="app.diagrams.net" modified="2020-09-03T08:10:28.278Z" agent="5.0 (Windows NT 10.0; Win64; x64) AppleWebKit/537.36 (KHTML, like Gecko) Chrome/80.0.3987.149 Safari/537.36" etag="AHmOVo6UjYbypvMrV8o8" version="13.6.4" type="github">
  <diagram id="C5RBs43oDa-KdzZeNtuy" name="Page-1">
    <mxGraphModel dx="896" dy="544" grid="1" gridSize="10" guides="1" tooltips="1" connect="1" arrows="1" fold="1" page="1" pageScale="1" pageWidth="827" pageHeight="1169" math="0" shadow="0">
      <root>
        <mxCell id="WIyWlLk6GJQsqaUBKTNV-0" />
        <mxCell id="WIyWlLk6GJQsqaUBKTNV-1" parent="WIyWlLk6GJQsqaUBKTNV-0" />
        <mxCell id="u_Hb0qPj84Vodkzen4RS-1" value="OfflineAnalyser" style="rounded=1;whiteSpace=wrap;html=1;fontSize=12;glass=0;strokeWidth=1;shadow=0;" parent="WIyWlLk6GJQsqaUBKTNV-1" vertex="1">
          <mxGeometry x="507" y="121" width="120" height="40" as="geometry" />
        </mxCell>
        <mxCell id="u_Hb0qPj84Vodkzen4RS-17" style="edgeStyle=orthogonalEdgeStyle;rounded=0;orthogonalLoop=1;jettySize=auto;html=1;exitX=0.5;exitY=1;exitDx=0;exitDy=0;entryX=0.75;entryY=0;entryDx=0;entryDy=0;" parent="WIyWlLk6GJQsqaUBKTNV-1" edge="1">
          <mxGeometry relative="1" as="geometry">
            <mxPoint x="400" y="260" as="sourcePoint" />
            <mxPoint x="402.5" y="310" as="targetPoint" />
            <Array as="points">
              <mxPoint x="403" y="260" />
              <mxPoint x="403" y="285" />
            </Array>
          </mxGeometry>
        </mxCell>
        <mxCell id="u_Hb0qPj84Vodkzen4RS-23" value="" style="rounded=1;whiteSpace=wrap;html=1;" parent="WIyWlLk6GJQsqaUBKTNV-1" vertex="1">
          <mxGeometry x="180" y="509" width="120" height="60" as="geometry" />
        </mxCell>
        <mxCell id="u_Hb0qPj84Vodkzen4RS-25" value="" style="rounded=1;whiteSpace=wrap;html=1;" parent="WIyWlLk6GJQsqaUBKTNV-1" vertex="1">
          <mxGeometry x="340" y="509" width="120" height="60" as="geometry" />
        </mxCell>
        <mxCell id="u_Hb0qPj84Vodkzen4RS-80" style="edgeStyle=orthogonalEdgeStyle;rounded=0;orthogonalLoop=1;jettySize=auto;html=1;exitX=1;exitY=0.5;exitDx=0;exitDy=0;entryX=1;entryY=0.5;entryDx=0;entryDy=0;" parent="WIyWlLk6GJQsqaUBKTNV-1" source="u_Hb0qPj84Vodkzen4RS-26" target="u_Hb0qPj84Vodkzen4RS-1" edge="1">
          <mxGeometry relative="1" as="geometry" />
        </mxCell>
        <mxCell id="u_Hb0qPj84Vodkzen4RS-26" value="&lt;span&gt;实时分析配置引用资源列表&lt;/span&gt;" style="rounded=1;whiteSpace=wrap;html=1;" parent="WIyWlLk6GJQsqaUBKTNV-1" vertex="1">
          <mxGeometry x="500" y="509" width="130" height="61" as="geometry" />
        </mxCell>
        <mxCell id="u_Hb0qPj84Vodkzen4RS-30" value="读取依赖服务器数据相关配置数据" style="rounded=1;whiteSpace=wrap;html=1;" parent="WIyWlLk6GJQsqaUBKTNV-1" vertex="1">
          <mxGeometry x="180" y="200" width="280" height="60" as="geometry" />
        </mxCell>
        <mxCell id="u_Hb0qPj84Vodkzen4RS-34" style="edgeStyle=orthogonalEdgeStyle;rounded=0;orthogonalLoop=1;jettySize=auto;html=1;exitX=0.5;exitY=1;exitDx=0;exitDy=0;entryX=0.75;entryY=0;entryDx=0;entryDy=0;" parent="WIyWlLk6GJQsqaUBKTNV-1" edge="1">
          <mxGeometry relative="1" as="geometry">
            <mxPoint x="400" y="150" as="sourcePoint" />
            <mxPoint x="402.5" y="200" as="targetPoint" />
            <Array as="points">
              <mxPoint x="403" y="150" />
              <mxPoint x="403" y="175" />
            </Array>
          </mxGeometry>
        </mxCell>
        <mxCell id="u_Hb0qPj84Vodkzen4RS-35" style="edgeStyle=orthogonalEdgeStyle;rounded=0;orthogonalLoop=1;jettySize=auto;html=1;exitX=0.5;exitY=1;exitDx=0;exitDy=0;entryX=0.75;entryY=0;entryDx=0;entryDy=0;" parent="WIyWlLk6GJQsqaUBKTNV-1" edge="1">
          <mxGeometry relative="1" as="geometry">
            <mxPoint x="238.47" y="150" as="sourcePoint" />
            <mxPoint x="240.97" y="200" as="targetPoint" />
            <Array as="points">
              <mxPoint x="241.47" y="150" />
              <mxPoint x="241.47" y="175" />
            </Array>
          </mxGeometry>
        </mxCell>
        <mxCell id="WIyWlLk6GJQsqaUBKTNV-3" value="FullRuntimeAnalyser" style="rounded=1;whiteSpace=wrap;html=1;fontSize=12;glass=0;strokeWidth=1;shadow=0;" parent="WIyWlLk6GJQsqaUBKTNV-1" vertex="1">
          <mxGeometry x="180" y="121" width="120" height="40" as="geometry" />
        </mxCell>
        <mxCell id="u_Hb0qPj84Vodkzen4RS-0" value="MixedAnalyser" style="rounded=1;whiteSpace=wrap;html=1;fontSize=12;glass=0;strokeWidth=1;shadow=0;" parent="WIyWlLk6GJQsqaUBKTNV-1" vertex="1">
          <mxGeometry x="343" y="121" width="120" height="40" as="geometry" />
        </mxCell>
        <mxCell id="u_Hb0qPj84Vodkzen4RS-37" style="edgeStyle=orthogonalEdgeStyle;rounded=0;orthogonalLoop=1;jettySize=auto;html=1;exitX=0.5;exitY=1;exitDx=0;exitDy=0;entryX=0.75;entryY=0;entryDx=0;entryDy=0;" parent="WIyWlLk6GJQsqaUBKTNV-1" edge="1">
          <mxGeometry relative="1" as="geometry">
            <mxPoint x="238.5" y="260" as="sourcePoint" />
            <mxPoint x="241" y="310" as="targetPoint" />
            <Array as="points">
              <mxPoint x="241.5" y="260" />
              <mxPoint x="241.5" y="285" />
            </Array>
          </mxGeometry>
        </mxCell>
        <mxCell id="u_Hb0qPj84Vodkzen4RS-40" style="edgeStyle=orthogonalEdgeStyle;rounded=0;orthogonalLoop=1;jettySize=auto;html=1;exitX=0.5;exitY=1;exitDx=0;exitDy=0;entryX=0.865;entryY=-0.017;entryDx=0;entryDy=0;entryPerimeter=0;" parent="WIyWlLk6GJQsqaUBKTNV-1" edge="1">
          <mxGeometry relative="1" as="geometry">
            <mxPoint x="564.47" y="161" as="sourcePoint" />
            <mxPoint x="563.9000000000001" y="405.98" as="targetPoint" />
            <Array as="points">
              <mxPoint x="565" y="186" />
            </Array>
          </mxGeometry>
        </mxCell>
        <mxCell id="u_Hb0qPj84Vodkzen4RS-41" style="edgeStyle=orthogonalEdgeStyle;rounded=0;orthogonalLoop=1;jettySize=auto;html=1;exitX=0.5;exitY=1;exitDx=0;exitDy=0;entryX=0.75;entryY=0;entryDx=0;entryDy=0;" parent="WIyWlLk6GJQsqaUBKTNV-1" edge="1">
          <mxGeometry relative="1" as="geometry">
            <mxPoint x="400" y="357" as="sourcePoint" />
            <mxPoint x="402.5" y="407" as="targetPoint" />
            <Array as="points">
              <mxPoint x="403" y="357" />
              <mxPoint x="403" y="382" />
            </Array>
          </mxGeometry>
        </mxCell>
        <mxCell id="u_Hb0qPj84Vodkzen4RS-42" style="edgeStyle=orthogonalEdgeStyle;rounded=0;orthogonalLoop=1;jettySize=auto;html=1;exitX=0.5;exitY=1;exitDx=0;exitDy=0;entryX=0.75;entryY=0;entryDx=0;entryDy=0;" parent="WIyWlLk6GJQsqaUBKTNV-1" edge="1">
          <mxGeometry relative="1" as="geometry">
            <mxPoint x="238.5" y="357" as="sourcePoint" />
            <mxPoint x="241" y="407" as="targetPoint" />
            <Array as="points">
              <mxPoint x="241.5" y="357" />
              <mxPoint x="241.5" y="382" />
            </Array>
          </mxGeometry>
        </mxCell>
        <mxCell id="u_Hb0qPj84Vodkzen4RS-16" value="实时分析配置引用资源列表" style="rounded=1;whiteSpace=wrap;html=1;" parent="WIyWlLk6GJQsqaUBKTNV-1" vertex="1">
          <mxGeometry x="180" y="310" width="280" height="60" as="geometry" />
        </mxCell>
        <mxCell id="u_Hb0qPj84Vodkzen4RS-43" style="edgeStyle=orthogonalEdgeStyle;rounded=0;orthogonalLoop=1;jettySize=auto;html=1;exitX=0.5;exitY=1;exitDx=0;exitDy=0;entryX=0.75;entryY=0;entryDx=0;entryDy=0;" parent="WIyWlLk6GJQsqaUBKTNV-1" edge="1">
          <mxGeometry relative="1" as="geometry">
            <mxPoint x="238.75" y="459" as="sourcePoint" />
            <mxPoint x="241.25" y="509" as="targetPoint" />
            <Array as="points">
              <mxPoint x="241.25" y="459" />
            </Array>
          </mxGeometry>
        </mxCell>
        <mxCell id="u_Hb0qPj84Vodkzen4RS-46" style="edgeStyle=orthogonalEdgeStyle;rounded=0;orthogonalLoop=1;jettySize=auto;html=1;exitX=0.5;exitY=1;exitDx=0;exitDy=0;entryX=0.75;entryY=0;entryDx=0;entryDy=0;" parent="WIyWlLk6GJQsqaUBKTNV-1" edge="1">
          <mxGeometry relative="1" as="geometry">
            <mxPoint x="401.72" y="459" as="sourcePoint" />
            <mxPoint x="404.22" y="509" as="targetPoint" />
            <Array as="points">
              <mxPoint x="404.22" y="459" />
            </Array>
          </mxGeometry>
        </mxCell>
        <mxCell id="u_Hb0qPj84Vodkzen4RS-47" style="edgeStyle=orthogonalEdgeStyle;rounded=0;orthogonalLoop=1;jettySize=auto;html=1;exitX=0.5;exitY=1;exitDx=0;exitDy=0;entryX=0.75;entryY=0;entryDx=0;entryDy=0;" parent="WIyWlLk6GJQsqaUBKTNV-1" edge="1">
          <mxGeometry relative="1" as="geometry">
            <mxPoint x="560" y="459" as="sourcePoint" />
            <mxPoint x="562.5" y="509" as="targetPoint" />
            <Array as="points">
              <mxPoint x="562.5" y="459" />
            </Array>
          </mxGeometry>
        </mxCell>
        <mxCell id="u_Hb0qPj84Vodkzen4RS-49" value="AllRuntimeAnalyser" style="rounded=1;whiteSpace=wrap;html=1;fontSize=12;glass=0;strokeWidth=1;shadow=0;" parent="WIyWlLk6GJQsqaUBKTNV-1" vertex="1">
          <mxGeometry x="180" y="121" width="120" height="40" as="geometry" />
        </mxCell>
        <mxCell id="u_Hb0qPj84Vodkzen4RS-50" value="MixedAnalyser" style="rounded=1;whiteSpace=wrap;html=1;fontSize=12;glass=0;strokeWidth=1;shadow=0;" parent="WIyWlLk6GJQsqaUBKTNV-1" vertex="1">
          <mxGeometry x="343" y="121" width="120" height="40" as="geometry" />
        </mxCell>
        <mxCell id="u_Hb0qPj84Vodkzen4RS-54" value="" style="rounded=1;whiteSpace=wrap;html=1;" parent="WIyWlLk6GJQsqaUBKTNV-1" vertex="1">
          <mxGeometry x="180" y="509" width="120" height="60" as="geometry" />
        </mxCell>
        <mxCell id="u_Hb0qPj84Vodkzen4RS-55" value="" style="rounded=1;whiteSpace=wrap;html=1;" parent="WIyWlLk6GJQsqaUBKTNV-1" vertex="1">
          <mxGeometry x="340" y="509" width="120" height="60" as="geometry" />
        </mxCell>
        <mxCell id="u_Hb0qPj84Vodkzen4RS-56" value="" style="rounded=1;whiteSpace=wrap;html=1;" parent="WIyWlLk6GJQsqaUBKTNV-1" vertex="1">
          <mxGeometry x="180" y="509" width="120" height="60" as="geometry" />
        </mxCell>
        <mxCell id="u_Hb0qPj84Vodkzen4RS-57" value="" style="rounded=1;whiteSpace=wrap;html=1;" parent="WIyWlLk6GJQsqaUBKTNV-1" vertex="1">
          <mxGeometry x="340" y="509" width="120" height="60" as="geometry" />
        </mxCell>
        <mxCell id="u_Hb0qPj84Vodkzen4RS-67" style="edgeStyle=orthogonalEdgeStyle;rounded=0;orthogonalLoop=1;jettySize=auto;html=1;exitX=0.5;exitY=1;exitDx=0;exitDy=0;" parent="WIyWlLk6GJQsqaUBKTNV-1" source="u_Hb0qPj84Vodkzen4RS-58" edge="1">
          <mxGeometry relative="1" as="geometry">
            <mxPoint x="320" y="620" as="targetPoint" />
            <Array as="points">
              <mxPoint x="240" y="600" />
              <mxPoint x="320" y="600" />
            </Array>
          </mxGeometry>
        </mxCell>
        <mxCell id="u_Hb0qPj84Vodkzen4RS-77" style="edgeStyle=orthogonalEdgeStyle;rounded=0;orthogonalLoop=1;jettySize=auto;html=1;exitX=0;exitY=0.5;exitDx=0;exitDy=0;entryX=0;entryY=0.5;entryDx=0;entryDy=0;" parent="WIyWlLk6GJQsqaUBKTNV-1" source="u_Hb0qPj84Vodkzen4RS-58" target="u_Hb0qPj84Vodkzen4RS-49" edge="1">
          <mxGeometry relative="1" as="geometry" />
        </mxCell>
        <mxCell id="u_Hb0qPj84Vodkzen4RS-58" value="&lt;span&gt;实时分析配置引用资源列表&lt;/span&gt;" style="rounded=1;whiteSpace=wrap;html=1;" parent="WIyWlLk6GJQsqaUBKTNV-1" vertex="1">
          <mxGeometry x="180" y="509" width="120" height="60" as="geometry" />
        </mxCell>
        <mxCell id="u_Hb0qPj84Vodkzen4RS-78" style="edgeStyle=orthogonalEdgeStyle;rounded=0;orthogonalLoop=1;jettySize=auto;html=1;exitX=1;exitY=0.5;exitDx=0;exitDy=0;entryX=1;entryY=0.5;entryDx=0;entryDy=0;" parent="WIyWlLk6GJQsqaUBKTNV-1" source="u_Hb0qPj84Vodkzen4RS-59" target="u_Hb0qPj84Vodkzen4RS-50" edge="1">
          <mxGeometry relative="1" as="geometry" />
        </mxCell>
        <mxCell id="u_Hb0qPj84Vodkzen4RS-59" value="读取配置相关引用资源列表文件" style="rounded=1;whiteSpace=wrap;html=1;" parent="WIyWlLk6GJQsqaUBKTNV-1" vertex="1">
          <mxGeometry x="340" y="509" width="120" height="60" as="geometry" />
        </mxCell>
        <mxCell id="u_Hb0qPj84Vodkzen4RS-60" value="输出配置相关引用资源列表文件" style="rounded=1;whiteSpace=wrap;html=1;" parent="WIyWlLk6GJQsqaUBKTNV-1" vertex="1">
          <mxGeometry x="500" y="620" width="130" height="61" as="geometry" />
        </mxCell>
        <mxCell id="u_Hb0qPj84Vodkzen4RS-62" value="发送引用资源列表到表现层" style="rounded=1;whiteSpace=wrap;html=1;" parent="WIyWlLk6GJQsqaUBKTNV-1" vertex="1">
          <mxGeometry x="180" y="620" width="280" height="60" as="geometry" />
        </mxCell>
        <mxCell id="u_Hb0qPj84Vodkzen4RS-63" style="edgeStyle=orthogonalEdgeStyle;rounded=0;orthogonalLoop=1;jettySize=auto;html=1;exitX=0.5;exitY=1;exitDx=0;exitDy=0;entryX=0.75;entryY=0;entryDx=0;entryDy=0;" parent="WIyWlLk6GJQsqaUBKTNV-1" edge="1">
          <mxGeometry relative="1" as="geometry">
            <mxPoint x="238.72" y="459" as="sourcePoint" />
            <mxPoint x="241.22" y="509" as="targetPoint" />
            <Array as="points">
              <mxPoint x="241.22" y="459" />
            </Array>
          </mxGeometry>
        </mxCell>
        <mxCell id="u_Hb0qPj84Vodkzen4RS-64" style="edgeStyle=orthogonalEdgeStyle;rounded=0;orthogonalLoop=1;jettySize=auto;html=1;exitX=0.5;exitY=1;exitDx=0;exitDy=0;entryX=0.5;entryY=0;entryDx=0;entryDy=0;" parent="WIyWlLk6GJQsqaUBKTNV-1" target="u_Hb0qPj84Vodkzen4RS-62" edge="1">
          <mxGeometry relative="1" as="geometry">
            <mxPoint x="401.11" y="570" as="sourcePoint" />
            <mxPoint x="403.61" y="620" as="targetPoint" />
            <Array as="points">
              <mxPoint x="404" y="570" />
              <mxPoint x="404" y="600" />
              <mxPoint x="320" y="600" />
            </Array>
          </mxGeometry>
        </mxCell>
        <mxCell id="u_Hb0qPj84Vodkzen4RS-65" style="edgeStyle=orthogonalEdgeStyle;rounded=0;orthogonalLoop=1;jettySize=auto;html=1;exitX=0.5;exitY=1;exitDx=0;exitDy=0;entryX=0.75;entryY=0;entryDx=0;entryDy=0;" parent="WIyWlLk6GJQsqaUBKTNV-1" edge="1">
          <mxGeometry relative="1" as="geometry">
            <mxPoint x="559.39" y="570" as="sourcePoint" />
            <mxPoint x="561.89" y="620" as="targetPoint" />
            <Array as="points">
              <mxPoint x="561.89" y="570" />
            </Array>
          </mxGeometry>
        </mxCell>
        <mxCell id="u_Hb0qPj84Vodkzen4RS-38" value="&lt;span&gt;只读取依赖客户端数据相关配置数据&lt;/span&gt;" style="rounded=1;whiteSpace=wrap;html=1;" parent="WIyWlLk6GJQsqaUBKTNV-1" vertex="1">
          <mxGeometry x="180" y="407" width="450" height="60" as="geometry" />
        </mxCell>
        <mxCell id="u_Hb0qPj84Vodkzen4RS-71" style="edgeStyle=orthogonalEdgeStyle;rounded=0;orthogonalLoop=1;jettySize=auto;html=1;exitX=0.5;exitY=1;exitDx=0;exitDy=0;entryX=0.75;entryY=0;entryDx=0;entryDy=0;" parent="WIyWlLk6GJQsqaUBKTNV-1" edge="1">
          <mxGeometry relative="1" as="geometry">
            <mxPoint x="401.11" y="71" as="sourcePoint" />
            <mxPoint x="403.61" y="121" as="targetPoint" />
            <Array as="points">
              <mxPoint x="403.61" y="71" />
            </Array>
          </mxGeometry>
        </mxCell>
        <mxCell id="u_Hb0qPj84Vodkzen4RS-72" style="edgeStyle=orthogonalEdgeStyle;rounded=0;orthogonalLoop=1;jettySize=auto;html=1;exitX=0.5;exitY=1;exitDx=0;exitDy=0;entryX=0.75;entryY=0;entryDx=0;entryDy=0;" parent="WIyWlLk6GJQsqaUBKTNV-1" edge="1">
          <mxGeometry relative="1" as="geometry">
            <mxPoint x="559.39" y="71" as="sourcePoint" />
            <mxPoint x="561.89" y="121" as="targetPoint" />
            <Array as="points">
              <mxPoint x="561.89" y="71" />
            </Array>
          </mxGeometry>
        </mxCell>
        <mxCell id="u_Hb0qPj84Vodkzen4RS-73" style="edgeStyle=orthogonalEdgeStyle;rounded=0;orthogonalLoop=1;jettySize=auto;html=1;exitX=0.5;exitY=1;exitDx=0;exitDy=0;entryX=0.75;entryY=0;entryDx=0;entryDy=0;" parent="WIyWlLk6GJQsqaUBKTNV-1" edge="1">
          <mxGeometry relative="1" as="geometry">
            <mxPoint x="238.11" y="71" as="sourcePoint" />
            <mxPoint x="240.61" y="121" as="targetPoint" />
            <Array as="points">
              <mxPoint x="240.61" y="71" />
            </Array>
          </mxGeometry>
        </mxCell>
        <mxCell id="u_Hb0qPj84Vodkzen4RS-68" value="Editor" style="rounded=1;whiteSpace=wrap;html=1;" parent="WIyWlLk6GJQsqaUBKTNV-1" vertex="1">
          <mxGeometry x="180" y="50" width="120" height="40" as="geometry" />
        </mxCell>
        <mxCell id="u_Hb0qPj84Vodkzen4RS-69" value="Device" style="rounded=1;whiteSpace=wrap;html=1;" parent="WIyWlLk6GJQsqaUBKTNV-1" vertex="1">
          <mxGeometry x="343" y="50" width="120" height="40" as="geometry" />
        </mxCell>
        <mxCell id="u_Hb0qPj84Vodkzen4RS-70" value="Build" style="rounded=1;whiteSpace=wrap;html=1;" parent="WIyWlLk6GJQsqaUBKTNV-1" vertex="1">
          <mxGeometry x="507" y="50" width="120" height="40" as="geometry" />
        </mxCell>
        <mxCell id="u_Hb0qPj84Vodkzen4RS-81" value="分析出未读取新的资源" style="text;html=1;strokeColor=none;fillColor=none;align=center;verticalAlign=middle;whiteSpace=wrap;rounded=0;" parent="WIyWlLk6GJQsqaUBKTNV-1" vertex="1">
          <mxGeometry x="110" y="300" width="40" height="20" as="geometry" />
        </mxCell>
        <mxCell id="u_Hb0qPj84Vodkzen4RS-83" value="分析出未读取新的资源" style="text;html=1;strokeColor=none;fillColor=none;align=center;verticalAlign=middle;whiteSpace=wrap;rounded=0;" parent="WIyWlLk6GJQsqaUBKTNV-1" vertex="1">
          <mxGeometry x="490" y="290" width="40" height="20" as="geometry" />
        </mxCell>
        <mxCell id="u_Hb0qPj84Vodkzen4RS-84" value="分析出未读取新的资源" style="text;html=1;strokeColor=none;fillColor=none;align=center;verticalAlign=middle;whiteSpace=wrap;rounded=0;" parent="WIyWlLk6GJQsqaUBKTNV-1" vertex="1">
          <mxGeometry x="660" y="290" width="40" height="20" as="geometry" />
        </mxCell>
      </root>
    </mxGraphModel>
  </diagram>
</mxfile>
